<svg xmlns="http://www.w3.org/2000/svg" viewBox="0 0 512 512" width="100%" height="100%">
  <defs>
    <!-- Background Gradient -->
    <linearGradient id="bgGrad" x1="0%" y1="0%" x2="100%" y2="100%">
      <stop offset="0%" stop-color="#22c55e" />
      <stop offset="100%" stop-color="#10b981" />
    </linearGradient>
  </defs>
  
  <!-- Rounded Square Background -->
  <rect width="512" height="512" rx="128" fill="url(#bgGrad)" />
  
  <!-- Elegant White Leaf Icon -->
  <path d="M390 122c-35 0-98 28-147 77s-77 112-77 147c0 35 28 35 35 35 35 0 98-28 147-77s77-112 77-147c0-35-28-35-35-35zm-35 161c-28 28-70 49-98 49-7 0-14-7-14-14 0-28 21-70 49-98s70-49 98-49c7 0 14 7 14 14 0 28-21 70-49 98z" fill="#ffffff" />
  <path d="M166 346c-7 0-14-7-14-14 0-42 28-84 70-126 7-7 21-7 28 0 7 7 7 21 0 28-35 35-56 70-56 98 0 7-7 14-14 14z" fill="#ffffff" opacity="0.85" />
</svg>